<svg xmlns="http://www.w3.org/2000/svg" width="24" height="24" viewBox="0 0 24 24">
    <g fill="#000" fill-rule="nonzero">
        <path d="M12 23a8.5 8.5 0 1 0 0-17 8.5 8.5 0 0 0 0 17zm0 1a9.5 9.5 0 1 1 0-19 9.5 9.5 0 0 1 0 19z"/>
        <path d="M14.181 5L16 2.996 14.181 1H9.766L8 3l1.766 2h4.415zM17 2.995L14.576 6H9.353L7 3l2.353-3h5.222L17 2.995z"/>
        <path d="M8 3V2h8v1z"/>
        <path d="M11.724 5.174l-.8.622L9 2.508 11.219 0l.807.611L10.245 2.5z"/>
        <path d="M12.302 5.174l.8.622 1.924-3.288L12.807 0 12 .611 13.781 2.5z"/>
    </g>
</svg>
