<?xml version="1.0" encoding="utf-8"?>
<!-- Generator: Adobe Illustrator 23.0.1, SVG Export Plug-In . SVG Version: 6.00 Build 0)  -->
<svg version="1.1" id="Layer_1" xmlns="http://www.w3.org/2000/svg" xmlns:xlink="http://www.w3.org/1999/xlink" x="0px" y="0px"
	 viewBox="0 0 16 16" style="enable-background:new 0 0 16 16;" xml:space="preserve">
<style type="text/css">
	.st0{filter:url(#Adobe_OpacityMaskFilter);}
	.st1{fill-rule:evenodd;clip-rule:evenodd;fill:#FFFFFF;}
	.st2{mask:url(#b_1_);}
	.st3{fill-rule:evenodd;clip-rule:evenodd;}
</style>
<g>
	<g>
		<path d="M8,16c-4.4,0-8-3.6-8-8s3.6-8,8-8s8,3.6,8,8S12.4,16,8,16z M8,15.3c4,0,7.3-3.3,7.3-7.3S12.1,0.7,8,0.7c0,0,0,0,0,0
			C4,0.7,0.7,4,0.7,8C0.7,12.1,4,15.3,8,15.3z M7.3,6h1.3v6.7H7.3V6z M7.3,3.3h1.3v1.3H7.3V3.3z"/>
	</g>
	<defs>
		<filter id="Adobe_OpacityMaskFilter" filterUnits="userSpaceOnUse" x="0" y="0" width="16" height="16">
			<feColorMatrix  type="matrix" values="1 0 0 0 0  0 1 0 0 0  0 0 1 0 0  0 0 0 1 0"/>
		</filter>
	</defs>
	<mask maskUnits="userSpaceOnUse" x="0" y="0" width="16" height="16" id="b_1_">
		<g class="st0">
			<path id="a_1_" class="st1" d="M8,16c-4.4,0-8-3.6-8-8s3.6-8,8-8s8,3.6,8,8S12.4,16,8,16z M8,15.3c4,0,7.3-3.3,7.3-7.3
				S12.1,0.7,8,0.7c0,0,0,0,0,0C4,0.7,0.7,4,0.7,8C0.7,12.1,4,15.3,8,15.3z M7.3,6h1.3v6.7H7.3V6z M7.3,3.3h1.3v1.3H7.3V3.3z"/>
		</g>
	</mask>
	<g class="st2">
		<path class="st3" d="M0,0h16v16H0V0z"/>
	</g>
</g>
</svg>
